<?xml version="1.0" encoding="utf-8"?>
<!-- Generator: Adobe Illustrator 17.0.0, SVG Export Plug-In . SVG Version: 6.00 Build 0)  -->
<!DOCTYPE svg PUBLIC "-//W3C//DTD SVG 1.1//EN" "http://www.w3.org/Graphics/SVG/1.1/DTD/svg11.dtd">
<svg version="1.1" id="图层_1" xmlns="http://www.w3.org/2000/svg" xmlns:xlink="http://www.w3.org/1999/xlink" x="0px" y="0px"
	 width="960px" height="960px" viewBox="0 0 960 960" enable-background="new 0 0 960 960" xml:space="preserve">
<g>
	<defs>
		<ellipse id="SVGID_1_" cx="480.498" cy="480.498" rx="145.392" ry="479.502"/>
	</defs>
	<clipPath id="SVGID_2_">
		<use xlink:href="#SVGID_1_"  overflow="visible"/>
	</clipPath>
	<rect x="324.205" y="-9.905" opacity="0.55" clip-path="url(#SVGID_2_)" fill="#B8E986" width="312.587" height="980.807"/>
</g>
<g>
	<defs>
		
			<ellipse id="SVGID_3_" transform="matrix(-0.5 0.866 -0.866 -0.5 1136.8707 304.6237)" cx="480.498" cy="480.498" rx="479.502" ry="145.392"/>
	</defs>
	<clipPath id="SVGID_4_">
		<use xlink:href="#SVGID_3_"  overflow="visible"/>
	</clipPath>
	<rect x="198.738" y="47.951" opacity="0.55" clip-path="url(#SVGID_4_)" fill="#B8E986" width="563.52" height="865.095"/>
</g>
<g>
	<defs>
		
			<ellipse id="SVGID_5_" transform="matrix(-0.866 0.5 -0.5 -0.866 1136.8706 656.3726)" cx="480.498" cy="480.498" rx="479.502" ry="145.392"/>
	</defs>
	<clipPath id="SVGID_6_">
		<use xlink:href="#SVGID_5_"  overflow="visible"/>
	</clipPath>
	<rect x="47.951" y="198.738" opacity="0.55" clip-path="url(#SVGID_6_)" fill="#B8E986" width="865.095" height="563.52"/>
</g>
<g>
	<defs>
		<ellipse id="SVGID_7_" cx="480.498" cy="480.498" rx="479.502" ry="145.392"/>
	</defs>
	<clipPath id="SVGID_8_">
		<use xlink:href="#SVGID_7_"  overflow="visible"/>
	</clipPath>
	<rect x="-9.905" y="324.205" opacity="0.55" clip-path="url(#SVGID_8_)" fill="#B8E986" width="980.807" height="312.587"/>
</g>
<g>
	<defs>
		
			<ellipse id="SVGID_9_" transform="matrix(-0.866 -0.5 0.5 -0.866 656.3725 1136.8707)" cx="480.498" cy="480.498" rx="479.502" ry="145.392"/>
	</defs>
	<clipPath id="SVGID_10_">
		<use xlink:href="#SVGID_9_"  overflow="visible"/>
	</clipPath>
	<rect x="47.951" y="198.738" opacity="0.55" clip-path="url(#SVGID_10_)" fill="#B8E986" width="865.095" height="563.52"/>
</g>
<g>
	<defs>
		
			<ellipse id="SVGID_11_" transform="matrix(-0.5 -0.866 0.866 -0.5 304.6235 1136.8707)" cx="480.498" cy="480.498" rx="479.502" ry="145.392"/>
	</defs>
	<clipPath id="SVGID_12_">
		<use xlink:href="#SVGID_11_"  overflow="visible"/>
	</clipPath>
	<rect x="198.738" y="47.951" opacity="0.55" clip-path="url(#SVGID_12_)" fill="#B8E986" width="563.52" height="865.095"/>
</g>
</svg>
