<?xml version="1.0" encoding="UTF-8" standalone="no"?>
<svg width="1754px" height="174px" viewBox="0 0 1754 174" version="1.1" xmlns="http://www.w3.org/2000/svg" xmlns:xlink="http://www.w3.org/1999/xlink" xmlns:sketch="http://www.bohemiancoding.com/sketch/ns">
    <!-- Generator: Sketch 3.3.1 (12002) - http://www.bohemiancoding.com/sketch -->
    <title>TEDx</title>
    <desc>Created with Sketch.</desc>
    <defs></defs>
    <g id="Page-1" stroke="none" stroke-width="1" fill="none" fill-rule="evenodd" sketch:type="MSPage">
        <g id="TEDx" sketch:type="MSLayerGroup">
            <g id="Group" transform="translate(3.078947, 133.000000)" sketch:type="MSShapeGroup">
                <path d="M16.7145789,31.542 L11.505,23.882 L6.29542105,31.542 L0.281210526,31.542 L8.42810526,19.934 L1.02015789,9.531 L7.16676316,9.531 L11.5983947,15.938 L15.9828158,9.531 L21.8923421,9.531 L14.4874737,19.8 L22.8570789,31.542 L16.7145789,31.542 Z" id="Shape" fill="#FF2B06"></path>
                <path d="M32.0241316,27.448 L32.0241316,23.685 L54.0673421,23.685 L54.0673421,27.448 L32.0241316,27.448 L32.0241316,27.448 Z M32.0241316,17.922 L32.0241316,14.159 L54.0673421,14.159 L54.0673421,17.922 L32.0241316,17.922 L32.0241316,17.922 Z" id="Shape" fill="#FFFFFF"></path>
                <path d="M66.2825526,31.543 L66.2825526,9.531 L71.7425526,9.531 L71.7425526,31.543 L66.2825526,31.543 L66.2825526,31.543 Z M66.2835789,4.969 L66.2835789,0.761 L71.7435789,0.761 L71.7435789,4.969 L66.2835789,4.969 L66.2835789,4.969 Z" id="Shape" fill="#FFFFFF"></path>
                <path d="M76.9716316,31.542 L76.9716316,9.531 L82.1124474,9.531 L82.1124474,12.736 L83.0484474,12.736 L83.1982895,12.5 C84.6310263,10.251 87.1670526,8.908 89.9801842,8.908 C95.7480789,8.908 98.1003947,11.51 98.1003947,17.888 L98.1003947,31.535 L92.6403947,31.535 L92.6403947,19.04 C92.6403947,16.4 92.1559737,12.894 87.9706579,12.894 C84.1404474,12.894 82.4326579,15.08 82.4326579,19.981 L82.4326579,31.543 L76.9716316,31.542 L76.9716316,31.542 Z" id="Shape" fill="#FFFFFF"></path>
                <path d="M112.224553,32.166 C105.257921,32.166 102.139974,26.228 102.139974,20.337 C102.139974,14.649 105.215842,8.908 112.088053,8.908 C114.894,8.908 117.362289,10.103 118.691368,12.106 L119.122421,11.335 L119.077263,12.335 L119.590421,12.335 L119.681763,11.835 L119.681763,0.769 L125.141763,0.769 L125.141763,31.542 L120.000947,31.542 L120.000947,28.605 L119.194263,28.605 L118.954105,28.851 C117.297632,31.591 114.379816,32.166 112.224553,32.166 L112.224553,32.166 Z M113.823553,12.67 C109.926632,12.67 107.599974,15.607 107.599974,20.521 C107.599974,24.447 109.524316,28.409 113.823553,28.409 C117.748184,28.409 119.909605,25.591 119.909605,20.471 C119.909605,15.51 117.690711,12.67 113.823553,12.67 L113.823553,12.67 Z" id="Shape" fill="#FFFFFF"></path>
                <path d="M140.545737,32.166 C133.531895,32.166 128.999684,27.611 128.999684,20.562 C128.999684,13.811 133.855184,8.911 140.545737,8.911 C143.668816,8.911 146.340316,9.97 148.269789,11.973 C150.490737,14.277 151.663816,17.753 151.522184,21.577 L134.435053,21.577 L134.458658,22.099 C134.650579,26.283 136.775053,28.404 140.772553,28.404 C143.423526,28.404 145.570579,26.918 146.246921,25.422 L150.874579,25.422 C149.122658,29.958 145.736842,32.166 140.545737,32.166 L140.545737,32.166 Z M140.362026,12.67 C135.920132,12.67 134.561289,16.046 134.459684,18.041 L134.433,18.566 L146.139158,18.566 L146.030368,17.977 C145.348895,14.306 143.601079,12.67 140.362026,12.67 L140.362026,12.67 Z" id="Shape" fill="#FFFFFF"></path>
                <path d="M155.444763,39.644 L155.445789,9.531 L160.586605,9.531 L160.586605,12.469 L161.386105,12.469 L161.627289,12.235 C163.372026,9.488 166.177974,8.912 168.225474,8.912 C175.761711,8.912 178.447579,15.046 178.447579,20.786 C178.447579,26.452 175.399421,32.17 168.590842,32.17 C165.815684,32.17 163.328921,30.955 161.937237,28.921 L161.785342,28.698 L160.997132,28.698 L160.905789,29.198 L160.905789,39.648 L155.444763,39.644 L155.444763,39.644 Z M166.810184,12.668 C162.913263,12.668 160.677947,15.564 160.677947,20.606 C160.677947,25.49 162.987158,28.405 166.855342,28.405 C170.752263,28.405 172.987579,25.562 172.987579,20.606 C172.987579,16.767 171.364974,12.668 166.810184,12.668 L166.810184,12.668 Z" id="Shape" fill="#FFFFFF"></path>
                <path d="M192.846789,32.166 C185.832947,32.166 181.300737,27.611 181.300737,20.562 C181.300737,13.811 186.156237,8.911 192.846789,8.911 C195.969868,8.911 198.641368,9.97 200.570842,11.973 C202.791789,14.277 203.964868,17.753 203.824263,21.577 L186.736105,21.577 L186.759711,22.099 C186.951632,26.283 189.076105,28.404 193.073605,28.404 C195.724579,28.404 197.871632,26.918 198.547974,25.422 L203.175632,25.422 C201.423711,29.958 198.037895,32.166 192.846789,32.166 L192.846789,32.166 Z M192.663079,12.67 C188.221184,12.67 186.862342,16.046 186.760737,18.041 L186.734053,18.566 L198.440211,18.566 L198.331421,17.977 C197.649947,14.306 195.902132,12.67 192.663079,12.67 L192.663079,12.67 Z" id="Shape" fill="#FFFFFF"></path>
                <path d="M207.746842,31.542 L207.746842,9.531 L212.887658,9.531 L212.887658,12.736 L213.822632,12.736 L213.972474,12.5 C215.405211,10.251 217.941237,8.908 220.754368,8.908 C226.522263,8.908 228.874579,11.51 228.874579,17.888 L228.874579,31.535 L223.414579,31.535 L223.414579,19.04 C223.414579,16.4 222.930158,12.894 218.744842,12.894 C214.914632,12.894 213.206842,15.08 213.206842,19.981 L213.206842,31.543 L207.746842,31.542 L207.746842,31.542 Z" id="Shape" fill="#FFFFFF"></path>
                <path d="M242.999763,32.166 C236.033132,32.166 232.915184,26.228 232.915184,20.337 C232.915184,14.649 235.991053,8.908 242.863263,8.908 C245.668184,8.908 248.1375,10.103 249.467605,12.106 L249.898658,11.335 L249.8535,12.335 L250.366658,12.335 L250.458,11.835 L250.458,0.769 L255.918,0.769 L255.918,31.542 L250.777184,31.542 L250.777184,28.605 L249.9705,28.605 L249.730342,28.851 C248.071816,31.591 245.155026,32.166 242.999763,32.166 L242.999763,32.166 Z M244.598763,12.67 C240.701842,12.67 238.375184,15.607 238.375184,20.521 C238.375184,24.447 240.299526,28.409 244.598763,28.409 C248.523395,28.409 250.684816,25.591 250.684816,20.471 C250.684816,15.51 248.466947,12.67 244.598763,12.67 L244.598763,12.67 Z" id="Shape" fill="#FFFFFF"></path>
                <path d="M271.320947,32.166 C264.307105,32.166 259.774895,27.611 259.774895,20.562 C259.774895,13.811 264.630395,8.911 271.320947,8.911 C274.444026,8.911 277.115526,9.97 279.045,11.973 C281.265947,14.277 282.439026,17.753 282.298421,21.577 L265.210263,21.577 L265.233868,22.099 C265.425789,26.283 267.550263,28.404 271.547763,28.404 C274.198737,28.404 276.345789,26.918 277.022132,25.422 L281.649789,25.422 C279.897868,29.958 276.512053,32.166 271.320947,32.166 L271.320947,32.166 Z M271.137237,12.67 C266.695342,12.67 265.3365,16.046 265.234895,18.041 L265.208211,18.566 L276.914368,18.566 L276.805579,17.977 C276.123079,14.306 274.376289,12.67 271.137237,12.67 L271.137237,12.67 Z" id="Shape" fill="#FFFFFF"></path>
                <path d="M286.217921,31.542 L286.221,9.531 L291.361816,9.531 L291.361816,12.736 L292.297816,12.736 L292.447658,12.5 C293.880395,10.251 296.414368,8.908 299.225447,8.908 C304.993342,8.908 307.345658,11.51 307.345658,17.888 L307.345658,31.535 L301.892842,31.535 L301.892842,19.04 C301.892842,16.4 301.405342,12.894 297.215921,12.894 C293.388789,12.894 291.677921,15.08 291.677921,19.981 L291.677921,31.543 L286.217921,31.542 L286.217921,31.542 Z" id="Shape" fill="#FFFFFF"></path>
                <path d="M321.062368,31.812 C316.202763,31.812 314.129605,30.323 314.129605,26.833 L314.129605,12.757 L310.200868,12.757 L310.200868,9.528 L314.129605,9.528 L314.129605,2.629 L319.590632,2.629 L319.590632,9.53 L324.341447,9.53 L324.341447,12.759 L319.590632,12.759 L319.590632,24.655 C319.590632,27.051 320.380895,27.825 322.844053,27.825 C323.392105,27.825 323.876526,27.798 324.340421,27.737 L324.340421,31.654 C323.500895,31.76 322.422237,31.812 321.062368,31.812 L321.062368,31.812 Z" id="Shape" fill="#FFFFFF"></path>
                <rect id="Rectangle-path" fill="#FFFFFF" x="327.741632" y="0.76" width="5.46" height="30.78"></rect>
                <path d="M341.434737,39.644 C340.3725,39.644 339.235342,39.582 337.974,39.463 L337.974,35.249 C338.137184,35.267 338.301395,35.279 338.465605,35.294 C339.239447,35.365 340.041,35.44 340.848711,35.44 C340.989316,35.44 341.126842,35.438 341.267447,35.433 C342.354316,35.325 343.217447,34.805 343.740868,33.967 C344.360763,32.983 344.446974,31.625 343.968711,30.434 L335.914184,9.529 L341.749816,9.529 L347.094868,25.286 L347.841,25.286 L348.046263,24.938 L353.094711,9.529 L358.697368,9.529 L349.085921,34.758 C347.719895,38.321 345.645711,39.644 341.434737,39.644 L341.434737,39.644 Z" id="Shape" fill="#FFFFFF"></path>
                <path d="M383.962184,32.163 C376.864184,32.163 372.278605,27.608 372.278605,20.559 C372.278605,17.082 373.373684,14.153 375.455053,12.079 C377.530263,10.005 380.475789,8.908 383.962184,8.908 C391.084816,8.908 395.691947,13.481 395.691947,20.559 C395.691947,27.608 391.087895,32.163 383.962184,32.163 L383.962184,32.163 Z M383.962184,12.667 C380.006763,12.667 377.738605,15.544 377.738605,20.563 C377.738605,25.544 380.006763,28.407 383.962184,28.407 C387.943263,28.407 390.226816,25.548 390.226816,20.563 C390.227842,15.544 387.944289,12.667 383.962184,12.667 L383.962184,12.667 Z" id="Shape" fill="#FFFFFF"></path>
                <path d="M399.092132,31.544 L399.090079,9.531 L404.230895,9.531 L404.230895,13.804 L405.091974,13.804 L405.311605,13.49 C406.401553,10.835 409.369658,8.908 412.371632,8.908 C412.649763,8.908 412.977158,8.946 413.273763,9.012 L413.273763,13.908 C412.713395,13.831 412.051421,13.784 411.457184,13.784 C407.001947,13.784 404.549053,16.586 404.549053,21.673 L404.549053,31.544 L399.092132,31.544 L399.092132,31.544 Z" id="Shape" fill="#FFFFFF"></path>
                <path d="M425.890263,40.267 C421.348816,40.267 416.647263,38.286 416.041737,33.871 L421.527395,33.871 C422.211947,35.941 424.012105,37.032 426.764684,37.032 C428.475553,37.032 429.848763,36.533 430.845316,35.548 C431.9445,34.461 432.511026,32.829 432.481263,30.827 L432.481263,27.31 L431.670474,27.31 L431.434421,27.561 C430.212079,29.63 427.7325,30.871 424.802368,30.871 C418.799447,30.871 415.220684,26.731 415.220684,19.798 C415.220684,14.554 418.233947,8.903 424.848553,8.903 C427.977789,8.903 430.070447,9.997 431.435447,12.342 L431.583237,12.597 L432.396079,12.597 L432.488447,12.097 L432.488447,9.526 L437.635421,9.526 L437.633368,30.57 C437.623105,36.916 433.566079,40.267 425.890263,40.267 L425.890263,40.267 Z M426.441395,12.671 C422.937553,12.671 420.674526,15.439 420.674526,19.714 C420.674526,23.291 422.192447,27.113 426.441395,27.113 C430.591816,27.112 432.482289,23.551 432.482289,20.248 C432.482289,15.362 430.336263,12.671 426.441395,12.671 L426.441395,12.671 Z" id="Shape" fill="#FFFFFF"></path>
                <path d="M448.551316,32.166 C443.838474,32.166 441.025342,29.775 441.025342,25.77 C441.025342,20.951 444.679026,19.798 448.620079,19.277 C449.327211,19.173 450.025105,19.091 450.691184,19.017 C453.801947,18.659 456.742342,18.321 456.742342,15.752 C456.742342,12.143 453.554605,12.143 452.019237,12.143 C448.656,12.143 447.559895,13.936 447.273553,15.615 L441.799184,15.609 C442.506316,9.794 448.663184,8.908 452.340474,8.908 C458.881184,8.908 462.197211,10.941 462.197211,14.951 L462.197211,26.924 C462.197211,28.15 462.277263,30.177 462.747316,31.543 L457.338632,31.543 C457.149789,30.908 457.046132,30.331 457.013289,29.788 L456.9435,28.643 L456.130658,29.471 C454.421842,31.209 451.730842,32.166 448.551316,32.166 L448.551316,32.166 Z M455.886395,20.405 C455.179263,21.008 453.714711,21.204 452.297368,21.393 C451.777026,21.459 451.2495,21.534 450.738395,21.622 C449.348763,21.899 446.482263,22.476 446.482263,25.497 C446.482263,27.778 447.991974,28.935 450.970342,28.935 C454.689711,28.935 456.737211,26.873 456.737211,23.139 L456.736184,19.674 L455.886395,20.405 L455.886395,20.405 Z" id="Shape" fill="#FFFFFF"></path>
                <path d="M467.335974,31.542 L467.332895,9.531 L472.480895,9.531 L472.480895,12.736 L473.415868,12.736 L473.565711,12.5 C474.998447,10.251 477.533447,8.908 480.347605,8.908 C486.113447,8.908 488.464737,11.51 488.464737,17.888 L488.464737,31.535 L483.007816,31.535 L483.007816,19.04 C483.007816,16.4 482.523395,12.894 478.338079,12.894 C474.507868,12.894 472.800079,15.08 472.800079,19.981 L472.800079,31.543 L467.335974,31.542 L467.335974,31.542 Z" id="Shape" fill="#FFFFFF"></path>
                <path d="M492.775263,31.543 L492.775263,9.531 L498.235263,9.531 L498.235263,31.543 L492.775263,31.543 L492.775263,31.543 Z M492.775263,4.969 L492.775263,0.761 L498.235263,0.761 L498.235263,4.969 L492.775263,4.969 L492.775263,4.969 Z" id="Shape" fill="#FFFFFF"></path>
                <path d="M502.001842,31.543 L502.001842,27.469 L514.919053,13.294 L502.915263,13.294 L502.915263,9.531 L521.805632,9.531 L521.805632,13.604 L508.889447,27.78 L522.672868,27.78 L522.672868,31.543 L502.001842,31.543 Z" id="Shape" fill="#FFFFFF"></path>
                <path d="M536.660526,32.166 C529.646684,32.166 525.114474,27.611 525.114474,20.562 C525.114474,13.811 529.967921,8.911 536.660526,8.911 C539.782579,8.911 542.452026,9.968 544.379447,11.968 C546.600395,14.275 547.778605,17.752 547.636974,21.576 L530.552921,21.576 L530.574474,22.098 C530.7705,26.282 532.898053,28.403 536.888368,28.403 C539.540368,28.403 541.687421,26.917 542.363763,25.421 L546.988342,25.421 C545.238474,29.958 541.851632,32.166 536.660526,32.166 L536.660526,32.166 Z M536.479895,12.67 C532.039026,12.67 530.682237,16.046 530.577553,18.041 L530.553947,18.566 L542.256,18.566 L542.149263,17.977 C541.466763,14.306 539.718947,12.67 536.479895,12.67 L536.479895,12.67 Z" id="Shape" fill="#FFFFFF"></path>
                <path d="M560.6445,32.166 C553.681974,32.166 550.565053,26.228 550.565053,20.337 C550.565053,14.649 553.640921,8.908 560.508,8.908 C563.316,8.908 565.787368,10.103 567.115421,12.106 L567.546474,11.335 L567.500289,12.335 L568.013447,12.335 L568.104789,11.835 L568.104789,0.769 L573.558632,0.769 L573.558632,31.542 L568.418842,31.542 L568.422947,28.605 L567.616263,28.605 L567.378158,28.851 C565.715526,31.591 562.799763,32.166 560.6445,32.166 L560.6445,32.166 Z M562.2435,12.67 C558.346579,12.67 556.020947,15.607 556.020947,20.521 C556.020947,24.447 557.945289,28.409 562.2435,28.409 C566.168132,28.409 568.329553,25.591 568.329553,20.471 C568.3275,15.51 566.109632,12.67 562.2435,12.67 L562.2435,12.67 Z" id="Shape" fill="#FFFFFF"></path>
                <path d="M598.251789,31.54 L598.247684,5.638 L588.473053,5.638 L588.473053,0.763 L614.169947,0.763 L614.169947,5.638 L604.397368,5.638 L604.397368,31.54 L598.251789,31.54 Z" id="Shape" fill="#FFFFFF"></path>
                <path d="M618.026842,31.541 L618.024789,0.76 L641.395026,0.76 L641.395026,5.635 L624.173447,5.635 L624.173447,13.447 L639.978711,13.447 L639.978711,17.877 L624.173447,17.877 L624.173447,26.666 L641.760395,26.666 L641.760395,31.541 L618.026842,31.541 Z" id="Shape" fill="#FFFFFF"></path>
                <path d="M645.797921,31.54 L645.797921,0.76 L659.354526,0.76 C668.300921,0.76 673.641868,6.448 673.641868,15.979 C673.641868,25.725 668.300921,31.541 659.354526,31.541 L645.797921,31.541 L645.797921,31.54 Z M651.9435,26.667 L658.851632,26.667 C664.264421,26.667 667.496289,22.921 667.496289,16.646 C667.496289,9.138 664.342421,5.642 657.571816,5.642 L651.9435,5.642 L651.9435,26.667 L651.9435,26.667 Z" id="Shape" fill="#FFFFFF"></path>
                <path d="M700.233711,32.166 C693.219868,32.166 688.687658,27.611 688.687658,20.562 C688.687658,13.811 693.541105,8.911 700.233711,8.911 C703.355763,8.911 706.025211,9.968 707.952632,11.968 C710.173579,14.275 711.351789,17.752 711.210158,21.576 L694.126105,21.576 L694.147658,22.098 C694.343684,26.282 696.471237,28.403 700.461553,28.403 C703.113553,28.403 705.260605,26.917 705.936947,25.421 L710.561526,25.421 C708.811658,29.958 705.424816,32.166 700.233711,32.166 L700.233711,32.166 Z M700.054105,12.67 C695.6235,12.67 694.259526,16.046 694.150737,18.04 L694.126105,18.566 L705.832263,18.566 L705.723474,17.977 C705.039947,14.306 703.292132,12.67 700.054105,12.67 L700.054105,12.67 Z" id="Shape" fill="#FFFFFF"></path>
                <path d="M719.927684,31.542 L712.189263,9.53 L717.902763,9.53 L722.882447,25.242 L723.638842,25.242 L723.842053,24.889 L728.712947,9.53 L734.055947,9.53 L726.406816,31.542 L719.927684,31.542 Z" id="Shape" fill="#FFFFFF"></path>
                <path d="M746.548263,32.166 C739.534421,32.166 735.002211,27.611 735.002211,20.562 C735.002211,13.811 739.855658,8.911 746.548263,8.911 C749.672368,8.911 752.342842,9.97 754.269237,11.973 C756.490184,14.277 757.666342,17.753 757.521632,21.577 L740.440658,21.577 L740.463237,22.099 C740.656184,26.283 742.778605,28.404 746.770974,28.404 C749.422974,28.404 751.570026,26.918 752.246368,25.422 L756.871974,25.422 C755.129289,29.958 751.743474,32.166 746.548263,32.166 L746.548263,32.166 Z M746.373789,12.67 C741.931895,12.67 740.573053,16.046 740.471447,18.041 L740.444763,18.566 L752.145789,18.566 L752.037,17.977 C751.357579,14.306 749.610789,12.67 746.373789,12.67 L746.373789,12.67 Z" id="Shape" fill="#FFFFFF"></path>
                <path d="M761.456526,31.542 L761.454474,9.531 L766.602474,9.531 L766.602474,12.736 L767.537447,12.736 L767.687289,12.5 C769.120026,10.251 771.654,8.908 774.465079,8.908 C780.230921,8.908 782.583237,11.51 782.583237,17.888 L782.583237,31.535 L777.126316,31.535 L777.126316,19.04 C777.126316,16.4 776.641895,12.894 772.454526,12.894 C768.624316,12.894 766.916526,15.08 766.916526,19.981 L766.916526,31.543 L761.456526,31.542 L761.456526,31.542 Z" id="Shape" fill="#FFFFFF"></path>
                <path d="M796.296868,31.812 C791.438289,31.812 789.364105,30.323 789.364105,26.833 L789.364105,12.757 L785.435368,12.757 L785.435368,9.528 L789.364105,9.528 L789.364105,2.629 L794.824105,2.629 L794.824105,9.53 L799.574921,9.53 L799.574921,12.759 L794.824105,12.759 L794.824105,24.655 C794.824105,27.051 795.615395,27.825 798.078553,27.825 C798.629684,27.825 799.111026,27.798 799.574921,27.737 L799.574921,31.654 C798.735395,31.76 797.656737,31.812 796.296868,31.812 L796.296868,31.812 Z" id="Shape" fill="#FFFFFF"></path>
            </g>
            <g id="Group" transform="translate(0.000000, 1.000000)" fill="#FF2B06" sketch:type="MSShapeGroup">
                <path d="M30.9485526,105.316 L30.9485526,26.621 L0.513157895,26.621 L0.513157895,0.5 L93.7837105,0.5 L93.7837105,26.621 L63.3606316,26.621 L63.3606316,105.316 L30.9485526,105.316 Z" id="Shape"></path>
                <path d="M100.008316,105.316 L100.008316,0.5 L190.521158,0.5 L190.521158,26.621 L132.441947,26.621 L132.441947,40.809 L190.521158,40.809 L190.521158,65.008 L132.441947,65.008 L132.441947,79.196 L190.536553,79.196 L190.536553,105.316 L100.008316,105.316 Z" id="Shape"></path>
                <path d="M197.177842,105.316 L197.178868,0.5 L251.573605,0.5 C268.148605,0.5 280.818474,5.943 289.230158,16.681 C298.168342,28.085 300.044447,42.592 300.044447,52.753 C300.044447,69.246 295.532763,82.152 286.636658,91.111 C277.274605,100.537 263.280789,105.316 245.041105,105.316 L197.177842,105.316 L197.177842,105.316 L197.177842,105.316 Z M229.610447,79.196 L243.209132,79.196 C264.442579,79.196 267.612868,62.342 267.612868,52.3 C267.612868,28.475 247.069105,26.621 240.772658,26.621 L229.610447,26.621 L229.610447,79.196 L229.610447,79.196 L229.610447,79.196 Z" id="Shape"></path>
            </g>
            <path d="M304.931763,65.539 L327.856579,32.692 L305.797974,1.296 L329.049158,1.296 L338.425579,17.578 L348.071921,1.296 L371.319,1.296 L349.267579,32.691 L372.192395,65.538 L348.926842,65.539 L338.425579,48.57 L328.183974,65.539 L304.931763,65.539 Z" id="Shape" fill="#FF2B06" sketch:type="MSShapeGroup"></path>
            <path d="M305.901632,65.039 L328.478526,32.691 L306.770921,1.796 L328.748447,1.796 L338.419421,18.589 L348.368526,1.796 L370.346053,1.796 L348.646658,32.69 L371.223553,65.038 L349.217289,65.039 L338.420447,47.593 L327.889421,65.039 L305.901632,65.039 Z" id="Shape" fill="#FF2B06" sketch:type="MSShapeGroup"></path>
            <path d="M388.662703,3.11236641 L405.043172,3.11236641 L434.83868,52.9598273 L464.634188,3.11236641 L481.085262,3.11236641 L441.899227,65.0333625 L441.899227,106.8318 L427.848739,106.8318 L427.848739,65.0333625 L388.662703,3.11236641 Z M486.168856,31.5663703 L499.089656,31.5663703 L499.089656,106.8318 L486.168856,106.8318 L486.168856,31.5663703 Z M486.168856,3.11236641 L499.089656,3.11236641 L499.089656,17.515882 L486.168856,17.515882 L486.168856,3.11236641 Z M518.294344,31.213343 L530.367879,31.213343 L530.367879,41.9453742 C533.945241,37.5207427 537.734363,34.3435284 541.73536,32.4136359 C545.736356,30.4837435 550.184456,29.5188117 555.079793,29.5188117 C565.811878,29.5188117 573.060634,33.2608641 576.826278,40.7450813 C578.897382,44.8402189 579.932918,50.7004142 579.932918,58.325843 L579.932918,106.8318 L567.012117,106.8318 L567.012117,59.1731086 C567.012117,54.5601949 566.329605,50.8416774 564.964559,48.0174445 C562.705173,43.3103897 558.610096,40.9568977 552.679207,40.9568977 C549.666692,40.9568977 547.195526,41.2628516 545.265633,41.8747688 C541.782413,42.9103208 538.722873,44.9813938 536.086922,48.08805 C533.968747,50.582789 532.591955,53.1598629 531.956502,55.8193488 C531.32105,58.4788348 531.003328,62.2797245 531.003328,67.222132 L531.003328,106.8318 L518.294344,106.8318 L518.294344,31.213343 Z M593.065535,96.8058234 L637.900008,42.5808234 L596.383992,42.5808234 L596.383992,31.213343 L654.986531,31.213343 L654.986531,41.5923469 L610.434481,95.4643195 L656.328035,95.4643195 L656.328035,106.8318 L593.065535,106.8318 L593.065535,96.8058234 Z M671.013973,2.75933906 L683.722957,2.75933906 L683.722957,41.4511359 C686.735472,37.6384216 689.441988,34.9554406 691.842586,33.4021125 C695.937724,30.7190913 701.044802,29.3776008 707.163973,29.3776008 C718.131411,29.3776008 725.568446,33.2137929 729.475301,40.8862922 C731.593476,45.0755709 732.652547,50.8886964 732.652547,58.325843 L732.652547,106.8318 L719.590535,106.8318 L719.590535,59.1731086 C719.590535,53.6187839 718.884488,49.5472426 717.472371,46.9583625 C715.165914,42.8161543 710.835489,40.7450812 704.480965,40.7450812 C699.209064,40.7450812 694.431475,42.5572702 690.148055,46.1817023 C685.864635,49.8061345 683.722957,56.6547965 683.722957,66.7278938 L683.722957,106.8318 L671.013973,106.8318 L671.013973,2.75933906 Z M798.774569,89.0745246 C801.90476,82.6964654 803.469832,75.6006867 803.469832,67.7869758 C803.469832,60.7263936 802.340156,54.9838729 800.08077,50.5592414 C796.503408,43.5928003 790.337259,40.109632 781.582137,40.109632 C773.815497,40.109632 768.167116,43.0750321 764.636824,49.0059211 C761.106533,54.9368101 759.341414,62.0914261 759.341414,70.4699836 C759.341414,78.5190473 761.106533,85.2264997 764.636824,90.5925422 C768.167116,95.9585846 773.768427,98.6415656 781.440926,98.6415656 C789.866554,98.6415656 795.644377,95.4525838 798.774569,89.0745246 L798.774569,89.0745246 Z M806.647078,38.7681281 C813.378167,45.2638637 816.74366,54.8190416 816.74366,67.4339484 C816.74366,79.6252203 813.77826,89.6981665 807.847371,97.6530891 C801.916482,105.608012 792.714328,109.585413 780.240633,109.585413 C769.838042,109.585413 761.577285,106.066943 755.458114,99.0298957 C749.338942,91.9928488 746.279403,82.5435781 746.279403,70.6818 C746.279403,57.9727521 749.503687,47.8527361 755.952352,40.3214484 C762.401017,32.7901608 771.061868,29.0245734 781.935164,29.0245734 C791.678768,29.0245734 799.91599,32.2723925 806.647078,38.7681281 L806.647078,38.7681281 Z M844.562215,31.213343 L844.562215,81.4138313 C844.562215,85.2736162 845.174123,88.4272956 846.397957,90.8749641 C848.657344,95.3937367 852.870094,97.6530891 859.036336,97.6530891 C867.885599,97.6530891 873.910539,93.6992224 877.111336,85.7913703 C878.852946,81.555021 879.723739,75.7418955 879.723739,68.3518195 L879.723739,31.213343 L892.432723,31.213343 L892.432723,106.8318 L880.429793,106.8318 L880.571004,95.6761359 C878.923535,98.5474394 876.875997,100.971536 874.428328,102.948499 C869.580062,106.902425 863.696332,108.879359 856.776961,108.879359 C845.997806,108.879359 838.65491,105.278516 834.748055,98.0767219 C832.62988,94.216937 831.570809,89.0627893 831.570809,82.6141242 L831.570809,31.213343 L844.562215,31.213343 Z M923.146102,73.3648078 C923.475596,79.2486263 924.864156,84.0262152 927.311824,87.697718 C931.971809,94.570018 940.185496,98.0061164 951.953133,98.0061164 C957.225034,98.0061164 962.026158,97.2529989 966.356649,95.7467414 C974.735206,92.8283674 978.924422,87.603615 978.924422,80.0723273 C978.924422,74.4238616 977.159303,70.3993901 973.629012,67.9987922 C970.05165,65.6452648 964.450339,63.5977267 956.82491,61.8561164 L942.774422,58.6788703 C933.595665,56.6077662 927.100027,54.3248789 923.287313,51.8301398 C916.697436,47.4996494 913.402547,41.0275462 913.402547,32.4136359 C913.402547,23.0936675 916.626831,15.4448182 923.075496,9.46685859 C929.524161,3.48889902 938.655711,0.499964063 950.470418,0.499964063 C961.343715,0.499964063 970.581171,3.12410774 978.183065,8.37247383 C985.784958,13.6208399 989.585848,22.0110392 989.585848,33.5433234 L976.382625,33.5433234 C975.676567,27.9889988 974.170332,23.7291781 971.863875,20.7637336 C967.580455,15.3506206 960.308165,12.6441047 950.046785,12.6441047 C941.762369,12.6441047 935.808034,14.3856888 932.183602,17.8689094 C928.55917,21.3521299 926.746981,25.4001363 926.746981,30.01305 C926.746981,35.0966692 928.865124,38.8151867 933.101473,41.1687141 C935.878635,42.6749716 942.162459,44.5577653 951.953133,46.8171516 L966.49786,50.1356086 C973.511371,51.7360072 978.924403,53.9247549 982.737117,56.7019172 C989.326994,61.5501836 992.621883,68.587125 992.621883,77.8129523 C992.621883,89.298166 988.444435,97.5118534 980.089412,102.454261 C971.73439,107.396668 962.026235,109.867835 950.964656,109.867835 C938.067326,109.867835 927.970845,106.572946 920.67491,99.9830695 C913.378975,93.4402634 909.801668,84.5675982 909.942879,73.3648078 L923.146102,73.3648078 Z M1055.81378,33.2962043 C1060.85033,35.8144786 1064.68652,39.0740652 1067.32247,43.0750617 C1069.86428,46.8877761 1071.55879,51.3358761 1072.40606,56.4194953 C1073.15919,59.9027159 1073.53575,65.4569572 1073.53575,73.0823859 L1018.11046,73.0823859 C1018.34581,80.7548852 1020.158,86.9092671 1023.54708,91.545716 C1026.93616,96.182165 1032.18445,98.5003547 1039.2921,98.5003547 C1045.92905,98.5003547 1051.2244,96.311607 1055.17833,91.9340461 C1057.43771,89.3922365 1059.03809,86.4503714 1059.9795,83.1083625 L1072.47667,83.1083625 C1072.14717,85.8855248 1071.0528,88.9803669 1069.19351,92.3929816 C1067.33423,95.8055964 1065.25139,98.5944845 1062.94493,100.75973 C1059.08515,104.525374 1054.30756,107.067145 1048.61202,108.38512 C1045.55243,109.138249 1042.0928,109.514808 1038.23302,109.514808 C1028.81891,109.514808 1020.84057,106.090477 1014.29776,99.2417121 C1007.75496,92.3929474 1004.4836,82.8024671 1004.4836,70.4699836 C1004.4836,58.3257822 1007.77849,48.4646504 1014.36837,40.8862922 C1020.95824,33.307934 1029.57203,29.5188117 1040.20997,29.5188117 C1045.57601,29.5188117 1050.77723,30.77793 1055.81378,33.2962043 L1055.81378,33.2962043 Z M1060.47374,62.9858039 C1059.95596,57.4785498 1058.75568,53.0775196 1056.87286,49.7825813 C1053.38964,43.66341 1047.57651,40.6038703 1039.43331,40.6038703 C1033.59656,40.6038703 1028.7013,42.7102457 1024.74737,46.9230598 C1020.79345,51.1358738 1018.69884,56.4900683 1018.46348,62.9858039 L1060.47374,62.9858039 Z M1089.13956,31.213343 L1101.21309,31.213343 L1101.21309,41.9453742 C1104.79046,37.5207427 1108.57958,34.3435284 1112.58057,32.4136359 C1116.58157,30.4837435 1121.02967,29.5188117 1125.92501,29.5188117 C1136.65709,29.5188117 1143.90585,33.2608641 1147.67149,40.7450813 C1149.7426,44.8402189 1150.77813,50.7004142 1150.77813,58.325843 L1150.77813,106.8318 L1137.85733,106.8318 L1137.85733,59.1731086 C1137.85733,54.5601949 1137.17482,50.8416774 1135.80977,48.0174445 C1133.55039,43.3103897 1129.45531,40.9568977 1123.52442,40.9568977 C1120.51191,40.9568977 1118.04074,41.2628516 1116.11085,41.8747688 C1112.62763,42.9103208 1109.56809,44.9813938 1106.93214,48.08805 C1104.81396,50.582789 1103.43717,53.1598629 1102.80172,55.8193488 C1102.16626,58.4788348 1101.84854,62.2797245 1101.84854,67.222132 L1101.84854,106.8318 L1089.13956,106.8318 L1089.13956,31.213343 Z M1169.55919,31.5663703 L1182.47999,31.5663703 L1182.47999,106.8318 L1169.55919,106.8318 L1169.55919,31.5663703 Z M1169.55919,3.11236641 L1182.47999,3.11236641 L1182.47999,17.515882 L1169.55919,17.515882 L1169.55919,3.11236641 Z M1249.02564,89.0745246 C1252.15583,82.6964654 1253.72091,75.6006867 1253.72091,67.7869758 C1253.72091,60.7263936 1252.59123,54.9838729 1250.33184,50.5592414 C1246.75448,43.5928003 1240.58833,40.109632 1231.83321,40.109632 C1224.06657,40.109632 1218.41819,43.0750321 1214.8879,49.0059211 C1211.35761,54.9368101 1209.59249,62.0914261 1209.59249,70.4699836 C1209.59249,78.5190473 1211.35761,85.2264997 1214.8879,90.5925422 C1218.41819,95.9585846 1224.0195,98.6415656 1231.692,98.6415656 C1240.11763,98.6415656 1245.89545,95.4525838 1249.02564,89.0745246 L1249.02564,89.0745246 Z M1256.89815,38.7681281 C1263.62924,45.2638637 1266.99473,54.8190416 1266.99473,67.4339484 C1266.99473,79.6252203 1264.02933,89.6981665 1258.09845,97.6530891 C1252.16756,105.608012 1242.9654,109.585413 1230.49171,109.585413 C1220.08912,109.585413 1211.82836,106.066943 1205.70919,99.0298957 C1199.59002,91.9928488 1196.53048,82.5435781 1196.53048,70.6818 C1196.53048,57.9727521 1199.75476,47.8527361 1206.20343,40.3214484 C1212.65209,32.7901608 1221.31294,29.0245734 1232.18624,29.0245734 C1241.92984,29.0245734 1250.16706,32.2723925 1256.89815,38.7681281 L1256.89815,38.7681281 Z M1282.45733,31.213343 L1294.53087,31.213343 L1294.53087,44.2753547 C1295.51935,41.7335451 1297.94345,38.638703 1301.80323,34.9907355 C1305.66302,31.3427681 1310.11112,29.5188117 1315.14766,29.5188117 C1315.38302,29.5188117 1315.78311,29.5423466 1316.34796,29.5894172 C1316.9128,29.6364877 1317.87774,29.7306274 1319.24278,29.8718391 L1319.24278,43.2868781 C1318.48965,43.1456665 1317.79537,43.0515268 1317.15992,43.0044563 C1316.52447,42.9573857 1315.83019,42.9338508 1315.07706,42.9338508 C1308.67546,42.9338508 1303.75667,44.9931564 1300.32052,49.1118293 C1296.88437,53.2305022 1295.16632,57.9727888 1295.16632,63.3388313 L1295.16632,106.8318 L1282.45733,106.8318 L1282.45733,31.213343 Z M1341.13048,73.3648078 C1341.45997,79.2486263 1342.84853,84.0262152 1345.2962,87.697718 C1349.95618,94.570018 1358.16987,98.0061164 1369.93751,98.0061164 C1375.20941,98.0061164 1380.01053,97.2529989 1384.34102,95.7467414 C1392.71958,92.8283674 1396.9088,87.603615 1396.9088,80.0723273 C1396.9088,74.4238616 1395.14368,70.3993901 1391.61339,67.9987922 C1388.03603,65.6452648 1382.43471,63.5977267 1374.80929,61.8561164 L1360.7588,58.6788703 C1351.58004,56.6077662 1345.0844,54.3248789 1341.27169,51.8301398 C1334.68181,47.4996494 1331.38692,41.0275462 1331.38692,32.4136359 C1331.38692,23.0936675 1334.61121,15.4448182 1341.05987,9.46685859 C1347.50854,3.48889902 1356.64009,0.499964063 1368.45479,0.499964063 C1379.32809,0.499964063 1388.56555,3.12410774 1396.16744,8.37247383 C1403.76933,13.6208399 1407.57022,22.0110392 1407.57022,33.5433234 L1394.367,33.5433234 C1393.66094,27.9889988 1392.15471,23.7291781 1389.84825,20.7637336 C1385.56483,15.3506206 1378.29254,12.6441047 1368.03116,12.6441047 C1359.74674,12.6441047 1353.79241,14.3856888 1350.16798,17.8689094 C1346.54354,21.3521299 1344.73136,25.4001363 1344.73136,30.01305 C1344.73136,35.0966692 1346.8495,38.8151867 1351.08585,41.1687141 C1353.86301,42.6749716 1360.14683,44.5577653 1369.93751,46.8171516 L1384.48223,50.1356086 C1391.49575,51.7360072 1396.90878,53.9247549 1400.72149,56.7019172 C1407.31137,61.5501836 1410.60626,68.587125 1410.60626,77.8129523 C1410.60626,89.298166 1406.42881,97.5118534 1398.07379,102.454261 C1389.71877,107.396668 1380.01061,109.867835 1368.94903,109.867835 C1356.0517,109.867835 1345.95522,106.572946 1338.65929,99.9830695 C1331.36335,93.4402634 1327.78604,84.5675982 1327.92725,73.3648078 L1341.13048,73.3648078 Z M1476.65767,35.2378547 C1482.00018,39.3800629 1485.2127,46.5111439 1486.29532,56.6313117 L1473.93936,56.6313117 C1473.18623,51.9713275 1471.46819,48.099833 1468.78516,45.0167121 C1466.10214,41.9335912 1461.79525,40.3920539 1455.86436,40.3920539 C1447.76823,40.3920539 1441.97864,44.3459206 1438.49542,52.2537727 C1436.23603,57.3844624 1435.10636,63.7153561 1435.10636,71.2466438 C1435.10636,78.825002 1436.70673,85.2029655 1439.90753,90.3807258 C1443.10832,95.558486 1448.1448,98.1473273 1455.0171,98.1473273 C1460.289,98.1473273 1464.46645,96.5351853 1467.54957,93.3108527 C1470.63269,90.0865202 1472.7626,85.6737225 1473.93936,80.0723273 L1486.29532,80.0723273 C1484.8832,90.098354 1481.35297,97.4294819 1475.7045,102.065931 C1470.05603,106.70238 1462.83081,109.02057 1454.02862,109.02057 C1444.14381,109.02057 1436.25961,105.407959 1430.37579,98.1826301 C1424.49197,90.957301 1421.55011,81.9316588 1421.55011,71.1054328 C1421.55011,57.8315383 1424.77439,47.499708 1431.22305,40.109632 C1437.67172,32.719556 1445.88541,29.0245734 1455.86436,29.0245734 C1464.38413,29.0245734 1471.31517,31.0956465 1476.65767,35.2378547 L1476.65767,35.2378547 Z M1499.0043,2.75933906 L1511.71329,2.75933906 L1511.71329,41.4511359 C1514.7258,37.6384216 1517.43232,34.9554406 1519.83292,33.4021125 C1523.92806,30.7190913 1529.03513,29.3776008 1535.1543,29.3776008 C1546.12174,29.3776008 1553.55878,33.2137929 1557.46563,40.8862922 C1559.58381,45.0755709 1560.64288,50.8886964 1560.64288,58.325843 L1560.64288,106.8318 L1547.58087,106.8318 L1547.58087,59.1731086 C1547.58087,53.6187839 1546.87482,49.5472426 1545.4627,46.9583625 C1543.15625,42.8161543 1538.82582,40.7450812 1532.4713,40.7450812 C1527.1994,40.7450812 1522.42181,42.5572702 1518.13839,46.1817023 C1513.85497,49.8061345 1511.71329,56.6547965 1511.71329,66.7278938 L1511.71329,106.8318 L1499.0043,106.8318 L1499.0043,2.75933906 Z M1626.7649,89.0745246 C1629.89509,82.6964654 1631.46016,75.6006867 1631.46016,67.7869758 C1631.46016,60.7263936 1630.33049,54.9838729 1628.0711,50.5592414 C1624.49374,43.5928003 1618.32759,40.109632 1609.57247,40.109632 C1601.80583,40.109632 1596.15745,43.0750321 1592.62716,49.0059211 C1589.09687,54.9368101 1587.33175,62.0914261 1587.33175,70.4699836 C1587.33175,78.5190473 1589.09687,85.2264997 1592.62716,90.5925422 C1596.15745,95.9585846 1601.75876,98.6415656 1609.43126,98.6415656 C1617.85689,98.6415656 1623.63471,95.4525838 1626.7649,89.0745246 L1626.7649,89.0745246 Z M1634.63741,38.7681281 C1641.3685,45.2638637 1644.73399,54.8190416 1644.73399,67.4339484 C1644.73399,79.6252203 1641.76859,89.6981665 1635.8377,97.6530891 C1629.90681,105.608012 1620.70466,109.585413 1608.23097,109.585413 C1597.82837,109.585413 1589.56762,106.066943 1583.44845,99.0298957 C1577.32927,91.9928488 1574.26973,82.5435781 1574.26973,70.6818 C1574.26973,57.9727521 1577.49402,47.8527361 1583.94268,40.3214484 C1590.39135,32.7901608 1599.0522,29.0245734 1609.9255,29.0245734 C1619.6691,29.0245734 1627.90632,32.2723925 1634.63741,38.7681281 L1634.63741,38.7681281 Z M1707.18453,89.0745246 C1710.31472,82.6964654 1711.87979,75.6006867 1711.87979,67.7869758 C1711.87979,60.7263936 1710.75012,54.9838729 1708.49073,50.5592414 C1704.91337,43.5928003 1698.74722,40.109632 1689.9921,40.109632 C1682.22546,40.109632 1676.57708,43.0750321 1673.04679,49.0059211 C1669.51649,54.9368101 1667.75138,62.0914261 1667.75138,70.4699836 C1667.75138,78.5190473 1669.51649,85.2264997 1673.04679,90.5925422 C1676.57708,95.9585846 1682.17839,98.6415656 1689.85089,98.6415656 C1698.27652,98.6415656 1704.05434,95.4525838 1707.18453,89.0745246 L1707.18453,89.0745246 Z M1715.05704,38.7681281 C1721.78813,45.2638637 1725.15362,54.8190416 1725.15362,67.4339484 C1725.15362,79.6252203 1722.18822,89.6981665 1716.25733,97.6530891 C1710.32644,105.608012 1701.12429,109.585413 1688.65059,109.585413 C1678.248,109.585413 1669.98725,106.066943 1663.86807,99.0298957 C1657.7489,91.9928488 1654.68936,82.5435781 1654.68936,70.6818 C1654.68936,57.9727521 1657.91365,47.8527361 1664.36231,40.3214484 C1670.81098,32.7901608 1679.47183,29.0245734 1690.34513,29.0245734 C1700.08873,29.0245734 1708.32595,32.2723925 1715.05704,38.7681281 L1715.05704,38.7681281 Z M1740.61622,3.11236641 L1753.3252,3.11236641 L1753.3252,106.8318 L1740.61622,106.8318 L1740.61622,3.11236641 Z" id="YinzhouSeniorSchool" fill="#FFFFFF" sketch:type="MSShapeGroup"></path>
        </g>
    </g>
</svg>